<?xml version="1.0" encoding="UTF-8"?>
<svg width="512" height="512" viewBox="0 0 512 512" xmlns="http://www.w3.org/2000/svg">
  <!-- Background circle -->
  <circle cx="256" cy="256" r="240" fill="#2196F3" stroke="#1976D2" stroke-width="8"/>
  
  <!-- Speed lines background -->
  <g opacity="0.2">
    <line x1="80" y1="200" x2="180" y2="200" stroke="white" stroke-width="4" stroke-linecap="round"/>
    <line x1="90" y1="240" x2="160" y2="240" stroke="white" stroke-width="4" stroke-linecap="round"/>
    <line x1="100" y1="280" x2="170" y2="280" stroke="white" stroke-width="4" stroke-linecap="round"/>
  </g>
  
  <!-- Search icon -->
  <g transform="translate(180, 180)">
    <!-- Search circle -->
    <circle cx="60" cy="60" r="40" fill="none" stroke="white" stroke-width="12" stroke-linecap="round"/>
    <!-- Search handle -->
    <line x1="90" y1="90" x2="120" y2="120" stroke="white" stroke-width="12" stroke-linecap="round"/>
  </g>
  
  <!-- Lightning bolt for speed -->
  <g transform="translate(320, 200)">
    <path d="M0 0 L20 0 L10 30 L30 30 L0 60 L10 30 L0 30 Z" fill="#FFD700" stroke="#FFA000" stroke-width="2"/>
  </g>
  
  <!-- Grid dots for apps -->
  <g opacity="0.3">
    <circle cx="120" cy="380" r="8" fill="white"/>
    <circle cx="160" cy="380" r="8" fill="white"/>
    <circle cx="200" cy="380" r="8" fill="white"/>
    <circle cx="240" cy="380" r="8" fill="white"/>
    <circle cx="280" cy="380" r="8" fill="white"/>
    <circle cx="320" cy="380" r="8" fill="white"/>
    <circle cx="360" cy="380" r="8" fill="white"/>
    <circle cx="400" cy="380" r="8" fill="white"/>
  </g>
</svg> 